<?xml version="1.0" standalone="no"?>
<!DOCTYPE svg PUBLIC "-//W3C//DTD SVG 20010904//EN"
 "http://www.w3.org/TR/2001/REC-SVG-20010904/DTD/svg10.dtd">
<svg version="1.0" xmlns="http://www.w3.org/2000/svg"
 width="352.000000pt" height="352.000000pt" viewBox="0 0 352.000000 352.000000"
 preserveAspectRatio="xMidYMid meet">
<metadata>
Created by potrace 1.14, written by Peter Selinger 2001-2017
</metadata>
<g transform="translate(0.000000,352.000000) scale(0.100000,-0.100000)"
fill="#000000" stroke="none">
<path d="M1545 3508 c-47 -27 -94 -113 -110 -203 -28 -156 -26 -461 4 -623 5
-26 12 -65 15 -87 3 -22 8 -60 11 -85 4 -24 11 -52 16 -62 5 -9 9 -26 9 -38 0
-19 -2 -20 -27 -7 -140 71 -339 99 -488 68 -297 -62 -521 -378 -510 -721 2
-80 8 -111 40 -200 21 -58 52 -125 68 -150 45 -69 157 -172 221 -203 58 -29
203 -70 287 -82 70 -10 102 -15 129 -20 14 -3 36 -7 49 -10 220 -41 335 -151
392 -370 27 -107 29 -313 5 -440 -20 -98 -21 -109 -31 -175 -17 -114 -11 -127
23 -53 12 27 40 80 62 118 21 39 57 124 79 190 53 158 103 412 110 551 1 24 4
25 39 20 20 -3 71 -10 112 -16 136 -20 243 -4 418 60 217 81 397 243 482 435
12 28 28 63 36 79 8 16 14 35 14 43 0 7 4 21 10 31 20 36 43 140 45 209 5 116
-43 318 -105 443 -39 78 -111 154 -185 195 -77 44 -218 93 -293 103 -143 20
-385 -8 -473 -54 -16 -8 -30 -10 -33 -5 -7 10 139 233 205 314 64 79 332 337
396 382 l22 15 -26 63 c-14 34 -37 80 -52 102 -25 37 -30 40 -65 37 -82 -8
-263 -134 -400 -279 -47 -51 -66 -63 -66 -44 0 22 64 174 95 226 25 40 33 64
29 81 -7 29 -60 77 -117 105 -23 12 -50 28 -59 36 -27 24 -70 -9 -108 -81 -46
-85 -60 -105 -60 -84 0 10 5 29 12 43 20 43 -6 73 -100 117 -90 41 -97 43
-127 26z"/>
</g>
</svg>
