<?xml version="1.0" standalone="no"?>
<!DOCTYPE svg PUBLIC "-//W3C//DTD SVG 20010904//EN"
 "http://www.w3.org/TR/2001/REC-SVG-20010904/DTD/svg10.dtd">
<svg version="1.0" xmlns="http://www.w3.org/2000/svg"
 width="47.000000pt" height="44.000000pt" viewBox="0 0 47.000000 44.000000"
 preserveAspectRatio="xMidYMid meet">
<metadata>
Created by potrace 1.16, written by Peter Selinger 2001-2019
</metadata>
<g transform="translate(0.000000,44.000000) scale(0.100000,-0.100000)"
fill="#000000" stroke="none">
<path d="M7 433 c-4 -3 -7 -17 -7 -30 0 -16 6 -23 20 -23 16 0 25 -20 56 -117
20 -65 45 -127 55 -138 17 -18 35 -20 155 -23 162 -5 184 -1 184 33 l0 25
-144 0 c-103 0 -146 4 -153 13 -5 6 -26 65 -47 129 -37 118 -50 138 -94 138
-10 0 -22 -3 -25 -7z"/>
<path d="M131 363 c0 -16 12 -62 27 -103 l27 -75 112 -3 c99 -2 113 -1 121 15
16 31 44 162 38 178 -4 12 -32 15 -166 15 l-160 0 1 -27z"/>
</g>
</svg>
