<?xml version="1.0" standalone="no"?>
<!DOCTYPE svg PUBLIC "-//W3C//DTD SVG 20010904//EN"
 "http://www.w3.org/TR/2001/REC-SVG-20010904/DTD/svg10.dtd">
<svg version="1.0" xmlns="http://www.w3.org/2000/svg"
 width="260.000000pt" height="260.000000pt" viewBox="0 0 260.000000 260.000000"
 preserveAspectRatio="xMidYMid meet">
<metadata>
Created by potrace 1.14, written by Peter Selinger 2001-2017
</metadata>
<g transform="translate(0.000000,260.000000) scale(0.100000,-0.100000)"
fill="#000000" stroke="none">
<path d="M1286 2386 c3 -8 0 -17 -7 -22 -7 -4 -10 -3 -6 3 3 5 0 10 -7 10 -8
0 -11 -8 -8 -19 2 -10 -1 -18 -7 -18 -7 0 -10 4 -6 9 3 5 1 12 -3 15 -5 3 -8
-10 -7 -29 1 -29 -1 -33 -13 -22 -13 10 -14 9 -3 -10 10 -20 9 -22 -6 -16 -16
6 -16 5 -4 -11 12 -15 12 -17 0 -14 -8 2 -13 -4 -12 -15 1 -13 -4 -17 -14 -12
-13 4 -13 3 -4 -8 9 -11 7 -17 -6 -28 -16 -13 -17 -12 -4 4 12 15 12 17 -2 12
-8 -4 -18 -14 -21 -23 -3 -9 -9 -24 -12 -32 -3 -8 0 -7 6 3 6 9 16 17 23 17 8
0 7 -3 -2 -9 -8 -5 -10 -14 -6 -21 5 -9 4 -11 -3 -6 -7 4 -12 3 -12 -3 0 -6
-8 -8 -17 -4 -14 5 -16 3 -6 -7 9 -10 8 -18 -4 -36 -8 -13 -12 -24 -9 -24 4 0
-1 -11 -10 -25 -13 -21 -19 -23 -36 -14 -16 9 -19 8 -12 -2 14 -24 11 -48 -9
-66 -10 -10 -21 -17 -23 -15 -12 7 -15 0 -4 -13 10 -12 9 -16 -4 -21 -12 -5
-14 -10 -6 -19 8 -10 8 -15 -1 -21 -7 -4 -9 -3 -6 3 4 6 1 13 -7 16 -10 4 -12
0 -8 -15 4 -16 2 -19 -9 -13 -11 7 -12 6 -2 -7 13 -15 8 -28 -11 -28 -6 0 -5
4 2 9 11 7 11 9 -1 14 -11 4 -13 -4 -12 -34 1 -22 -3 -42 -8 -46 -6 -3 -7 -1
-3 5 4 7 2 12 -3 12 -6 0 -11 -6 -11 -12 0 -9 -4 -8 -11 2 -9 13 -10 13 -6 -2
3 -9 1 -19 -6 -22 -7 -3 -2 -3 11 0 23 6 23 5 5 -15 -19 -23 -28 -28 -17 -9 4
7 3 8 -4 4 -6 -4 -8 -14 -5 -23 5 -12 2 -15 -10 -10 -15 6 -16 4 -6 -16 11
-19 10 -21 -3 -9 -14 11 -16 9 -14 -17 2 -24 -1 -28 -11 -19 -7 6 -13 9 -14 7
-6 -31 -5 -37 4 -35 7 2 9 1 4 -1 -4 -3 -4 -9 -1 -15 4 -6 -3 -5 -16 2 -19 10
-21 10 -11 -7 12 -24 -1 -49 -20 -37 -10 6 -10 3 1 -11 9 -11 10 -16 3 -11 -8
4 -13 1 -13 -8 0 -9 -8 -16 -17 -16 -15 0 -16 -2 -3 -10 13 -9 13 -10 0 -11
-8 -1 -19 -1 -23 0 -5 1 -6 -3 -2 -9 3 -6 11 -7 17 -4 6 4 6 0 -1 -13 -6 -11
-7 -24 -3 -29 4 -5 0 -3 -10 4 -11 9 -18 10 -23 2 -3 -5 -1 -10 4 -10 17 0 13
-17 -5 -24 -8 -3 -12 -2 -9 3 3 5 2 12 -3 15 -4 2 -9 -4 -9 -15 -1 -10 2 -19
8 -19 5 0 9 -5 9 -11 0 -5 -4 -7 -10 -4 -5 3 -10 -2 -10 -12 0 -15 -2 -16 -10
-3 -8 13 -10 13 -10 -2 0 -9 6 -19 13 -22 6 -3 -1 -4 -18 0 -28 5 -29 4 -11
-9 15 -11 16 -16 6 -22 -9 -6 -11 -4 -5 5 5 9 4 11 -3 6 -9 -5 -9 -13 -2 -27
6 -10 7 -19 3 -18 -4 1 -17 1 -27 0 -20 -1 -20 -1 0 -16 18 -14 18 -14 -3 -10
-13 2 -26 -1 -29 -7 -4 -6 -3 -8 3 -5 6 4 13 0 17 -8 3 -8 0 -14 -7 -12 -7 1
-11 -4 -9 -12 2 -8 -3 -11 -11 -8 -7 3 -13 -3 -14 -14 -1 -12 3 -16 15 -12 14
4 15 3 2 -5 -10 -8 -18 -7 -28 0 -10 9 -12 8 -10 -3 2 -8 8 -17 13 -21 6 -4
-1 -8 -15 -8 -14 0 -20 -4 -15 -8 6 -4 11 -13 13 -21 3 -12 0 -12 -12 -2 -12
10 -14 9 -10 -6 3 -10 -2 -27 -11 -38 -16 -20 -16 -20 -6 2 7 14 8 24 1 28 -5
3 -10 5 -11 3 -2 -8 -7 -46 -10 -74 -2 -22 -7 -30 -16 -27 -11 4 -11 9 -1 22
10 13 10 14 -2 4 -17 -16 -23 -46 -7 -36 7 3 1 -5 -13 -19 -14 -14 -34 -30
-45 -36 -11 -6 -15 -12 -9 -12 6 0 23 9 37 20 14 11 29 20 33 20 5 0 -2 -7
-14 -16 -12 -8 -19 -20 -16 -26 4 -7 2 -8 -4 -4 -12 7 -35 -27 -25 -37 3 -4 1
-13 -5 -20 -7 -8 -8 -18 -4 -22 4 -5 1 -5 -5 -1 -7 4 -13 3 -13 -2 0 -5 -10
-12 -22 -15 -19 -5 -20 -8 -7 -23 12 -16 12 -17 -2 -12 -12 5 -16 1 -14 -15 2
-30 -5 -40 -19 -28 -8 7 -12 4 -13 -10 -1 -12 2 -17 10 -12 7 3 4 -3 -6 -14
-9 -11 -17 -25 -17 -31 0 -6 -4 -14 -10 -17 -6 -4 -7 1 -3 12 4 12 0 10 -14
-7 -21 -25 -20 -55 1 -43 6 3 0 -6 -14 -21 -14 -15 -24 -29 -22 -32 7 -12 0
-13 -19 -4 -20 11 -20 11 -2 -17 17 -27 17 -28 -2 -13 -17 14 -18 13 -12 -4 5
-13 3 -17 -6 -13 -8 3 -14 -1 -14 -9 0 -7 4 -11 9 -8 4 3 8 0 8 -5 0 -6 -10
-11 -22 -11 -13 0 -18 -4 -13 -8 16 -11 15 -41 -1 -35 -8 3 -11 10 -7 17 3 6
2 7 -2 3 -12 -10 -16 -39 -5 -32 11 7 7 -22 -5 -32 -4 -4 -5 -2 -1 5 4 6 3 12
-3 12 -14 0 -25 -21 -27 -50 -2 -39 -3 -40 -20 -40 -10 0 -14 -6 -11 -15 4 -8
1 -17 -5 -21 -7 -5 -8 -2 -3 6 6 9 4 11 -4 5 -7 -4 -11 -15 -8 -25 3 -13 0
-17 -9 -13 -20 7 -17 -7 3 -23 17 -13 17 -14 -2 -7 -18 6 -19 5 -5 -12 12 -15
12 -17 1 -10 -11 6 -13 3 -8 -14 4 -19 3 -20 -9 -10 -10 8 -11 16 -5 22 5 5 7
16 4 23 -10 26 -19 14 -18 -23 0 -29 5 -37 23 -39 14 -3 22 1 22 10 0 22 26
26 47 7 14 -13 34 -18 71 -18 29 1 52 5 52 9 0 4 -13 6 -30 4 -19 -2 -34 3
-42 13 -11 14 -11 14 3 4 12 -10 18 -10 27 -1 9 9 12 9 12 -1 0 -11 3 -11 15
-1 10 8 15 9 15 2 0 -6 6 -10 13 -8 6 1 9 1 5 -1 -22 -12 -1 -18 62 -19 39 0
70 3 70 8 0 5 -5 6 -10 3 -6 -3 -10 -1 -10 5 0 6 -5 8 -13 3 -17 -11 -38 -13
-32 -3 3 5 0 10 -6 12 -6 2 41 3 104 3 63 0 113 -3 110 -8 -2 -4 5 -6 17 -4
12 2 25 9 29 16 6 10 10 9 15 -4 3 -9 11 -13 18 -9 6 4 23 8 37 9 14 1 25 7
24 13 -2 6 4 9 13 5 11 -4 12 -8 4 -13 -8 -5 -9 -10 -2 -14 6 -3 13 -2 17 4 8
13 25 13 25 -1 0 -5 -4 -7 -10 -4 -6 4 -7 -1 -3 -11 4 -11 8 -13 11 -6 2 7 8
12 13 12 6 0 7 -6 3 -12 -5 -9 -2 -9 9 1 9 7 17 9 17 4 0 -5 18 -9 40 -9 22 0
40 4 40 10 0 6 5 4 10 -4 8 -13 10 -12 10 4 0 13 -4 16 -17 11 -10 -4 -28 -9
-40 -10 -16 -2 -20 1 -15 13 3 10 7 12 10 4 2 -7 8 -12 13 -12 6 0 7 5 3 12
-5 7 -2 9 8 6 23 -9 80 22 73 40 -4 12 -2 12 8 4 10 -9 14 -8 14 2 0 8 5 28
12 44 9 22 17 29 29 24 14 -5 15 -3 5 9 -14 17 0 39 23 39 7 0 16 5 20 12 5 7
3 8 -6 3 -10 -6 -12 -4 -7 9 4 10 7 20 7 22 0 3 5 2 11 -2 8 -5 10 3 7 24 -3
23 -1 29 11 24 10 -4 13 -1 9 10 -4 8 -2 21 4 29 8 11 9 11 5 -2 -3 -9 0 -16
7 -16 6 0 11 12 11 26 0 14 5 26 12 26 6 0 15 4 20 9 4 5 3 6 -4 2 -8 -4 -11
1 -10 14 1 11 7 20 14 20 7 0 10 6 7 14 -3 8 0 17 5 21 6 3 8 12 4 18 -4 7 2
5 12 -3 17 -14 18 -14 5 10 -12 23 -12 24 4 11 9 -8 19 -11 23 -7 3 3 2 6 -4
6 -5 0 -10 7 -10 15 0 9 6 14 14 11 7 -3 12 -2 12 2 -3 20 2 33 11 27 6 -3 7
1 4 9 -3 9 -11 13 -17 9 -6 -4 -7 -1 -3 6 5 7 14 10 22 7 9 -3 11 0 7 11 -5
12 -3 14 8 8 11 -7 11 -5 -1 10 -8 10 -10 16 -4 12 7 -4 18 0 25 9 13 16 15
20 22 58 2 11 9 22 16 24 9 3 9 8 -1 20 -11 13 -10 14 9 4 28 -15 44 -15 18 0
-18 11 -18 12 -1 18 9 3 16 9 14 12 -2 3 6 15 16 27 11 12 15 21 10 21 -5 0
-2 5 6 10 10 6 11 10 3 10 -7 0 -13 5 -13 11 0 6 6 9 14 6 17 -7 30 20 13 27
-7 3 -6 5 4 5 26 2 38 21 29 46 -7 19 -5 22 13 21 12 0 22 4 22 9 0 6 5 17 10
25 13 20 15 41 4 34 -5 -3 -9 0 -9 6 0 8 10 10 28 6 15 -4 22 -3 17 1 -15 11
-12 50 5 65 12 11 12 11 2 -4 -11 -13 -10 -18 0 -24 7 -4 10 -4 6 1 -4 4 -3
14 3 22 6 7 8 13 3 13 -5 0 -2 5 6 10 11 7 11 10 2 10 -7 0 -10 5 -7 10 4 6
10 8 14 5 5 -2 16 4 26 15 10 11 15 20 10 20 -4 0 -14 -8 -21 -17 -7 -10 -14
-13 -14 -6 0 6 7 18 15 27 8 8 15 19 15 24 0 6 7 13 16 16 8 3 13 9 11 13 -3
5 5 8 18 8 13 0 21 -3 18 -7 -2 -5 -10 -8 -17 -8 -8 0 -19 -6 -25 -13 -8 -10
-7 -14 4 -14 8 0 12 4 9 9 -3 4 2 8 11 8 10 0 13 -5 9 -12 -5 -9 -2 -8 9 1 10
8 20 11 24 7 3 -3 2 -6 -4 -6 -5 0 -10 -7 -10 -15 0 -8 4 -15 9 -15 4 0 8 -7
8 -16 0 -8 4 -12 10 -9 5 3 7 0 4 -8 -3 -8 0 -18 7 -23 8 -4 10 -3 5 4 -15 24
2 11 19 -14 9 -15 13 -24 7 -20 -5 3 -12 -1 -15 -9 -4 -9 -1 -12 9 -8 17 6 18
-8 2 -26 -8 -8 -8 -11 -2 -8 14 8 48 -39 39 -53 -3 -5 7 -18 23 -27 16 -10 27
-23 25 -30 -2 -6 1 -15 8 -19 8 -5 10 -3 4 7 -7 12 -5 12 6 1 12 -11 12 -14
-1 -23 -12 -9 -10 -10 8 -6 12 3 20 1 17 -3 -3 -5 1 -15 9 -23 8 -8 12 -18 9
-21 -11 -11 -12 -37 -2 -30 5 3 7 10 4 15 -10 15 2 10 16 -8 10 -11 10 -14 2
-9 -7 4 -13 3 -13 -2 0 -5 12 -15 26 -23 l26 -14 -23 -6 c-23 -7 -23 -7 -2 -8
21 -1 48 -52 35 -66 -4 -4 3 -4 16 -1 14 5 22 3 22 -4 0 -6 -4 -8 -10 -5 -5 3
-10 1 -10 -4 0 -6 5 -11 11 -11 8 0 8 -4 0 -14 -9 -11 -8 -15 4 -20 9 -3 13
-2 10 4 -3 6 -4 10 -1 10 3 0 13 -14 22 -31 11 -23 12 -29 2 -24 -7 3 -1 -3
15 -15 15 -12 27 -27 27 -33 0 -7 -5 -6 -11 3 -9 13 -10 13 -6 0 2 -8 11 -14
20 -14 9 1 13 -4 10 -12 -3 -8 -10 -11 -16 -7 -6 3 -7 1 -3 -6 6 -9 11 -9 24
1 12 10 14 10 8 1 -4 -7 -2 -13 3 -13 6 0 11 -5 11 -11 0 -5 -4 -8 -9 -4 -5 3
-13 0 -17 -6 -4 -8 -3 -9 4 -5 7 4 12 2 12 -4 0 -7 7 -10 14 -7 10 4 13 1 9
-9 -3 -7 -10 -14 -17 -14 -6 0 -5 -4 4 -9 8 -6 18 -7 22 -5 4 3 8 0 8 -6 0 -6
6 -8 13 -4 6 4 9 3 4 -1 -4 -5 0 -19 8 -32 15 -23 15 -23 -4 -11 -11 6 -17 16
-15 20 3 4 0 8 -5 8 -15 0 -14 -11 5 -32 14 -14 14 -20 4 -33 -14 -17 -30 -20
-30 -5 0 6 5 9 11 8 6 -2 14 4 16 12 3 9 1 11 -4 5 -12 -15 -47 -19 -38 -5 6
9 2 9 -13 1 -30 -16 -36 -14 -21 7 13 15 12 16 -4 3 -13 -10 -14 -17 -7 -27 9
-10 6 -11 -11 -7 -17 5 -20 3 -14 -7 5 -9 4 -11 -4 -6 -9 6 -9 11 -1 21 9 11
7 12 -9 8 -13 -3 -21 -1 -21 7 0 7 -9 2 -21 -11 -14 -17 -19 -19 -15 -7 4 13
1 15 -12 11 -15 -6 -16 -5 -2 13 14 17 14 18 -2 6 -9 -8 -21 -11 -26 -8 -5 3
-9 -1 -9 -8 0 -8 6 -12 13 -9 6 2 14 0 18 -5 3 -5 -5 -7 -17 -6 -12 1 -26 3
-30 3 -5 1 -5 7 -1 14 5 8 2 7 -10 -2 -13 -11 -14 -16 -4 -22 8 -6 9 -9 2 -9
-6 0 -17 7 -24 15 -7 9 -15 13 -18 10 -3 -3 -12 1 -20 8 -13 11 -14 9 -2 -13
12 -22 11 -24 -2 -13 -8 7 -18 9 -23 5 -4 -4 -4 4 0 17 6 21 5 22 -8 10 -8 -8
-13 -17 -10 -21 2 -4 -3 -5 -11 -2 -9 3 -13 11 -9 17 3 5 1 7 -5 3 -5 -3 -12
-3 -15 1 -2 5 -2 3 -1 -4 2 -7 -1 -15 -6 -18 -6 -4 -10 -1 -10 4 0 6 -5 11
-11 11 -5 0 -8 -4 -5 -8 3 -5 -1 -9 -9 -9 -8 0 -15 4 -15 9 0 4 -5 8 -11 8 -5
0 -8 -4 -5 -8 2 -4 -4 -8 -14 -9 -22 -2 -35 13 -20 22 5 3 10 1 10 -6 0 -7 3
-10 6 -6 3 3 3 11 -1 17 -5 8 -15 4 -32 -12 l-25 -23 6 25 c5 17 4 21 -2 11
-6 -8 -16 -11 -24 -8 -8 3 -15 -1 -15 -8 0 -7 7 -11 16 -8 14 4 14 4 1 -6 -11
-8 -18 -7 -27 6 -10 13 -13 14 -14 2 0 -8 -4 -6 -9 6 l-9 20 0 -20 c-1 -17 -3
-17 -11 -5 -8 12 -10 12 -10 -5 0 -17 -2 -17 -10 -5 -7 11 -5 19 7 27 9 7 12
13 6 13 -7 0 -15 -5 -18 -11 -4 -6 -14 -8 -22 -4 -14 5 -14 3 -2 -11 13 -16
12 -16 -6 -7 -15 8 -28 8 -50 -1 -17 -7 -36 -11 -43 -9 -8 3 -10 -1 -5 -13 4
-12 3 -15 -5 -10 -7 4 -12 2 -12 -4 0 -6 -5 -8 -12 -4 -7 4 -8 3 -4 -5 4 -6
11 -9 15 -7 3 3 7 -4 7 -15 0 -12 -4 -15 -10 -9 -21 21 -25 15 -28 -56 -2 -28
-6 -40 -14 -37 -7 2 -20 -7 -29 -21 -16 -23 -16 -27 -1 -42 14 -14 14 -34 0
-34 -3 0 -3 4 1 9 3 5 0 13 -6 17 -8 4 -9 3 -5 -4 4 -7 2 -12 -5 -12 -18 0 -4
-11 18 -14 10 -2 24 4 31 13 11 14 11 13 2 -7 -6 -12 -15 -22 -21 -22 -6 0 -7
-5 -3 -11 4 -8 9 -7 15 2 8 12 11 11 20 -1 8 -12 9 -11 4 6 -4 17 -1 21 17 20
13 -1 27 0 33 3 21 11 43 7 38 -6 -4 -10 -9 -11 -19 -2 -18 15 -18 2 -1 -16
11 -11 16 -10 26 7 7 11 15 17 18 14 3 -3 1 -12 -5 -19 -9 -10 -8 -14 3 -14 8
0 12 4 9 9 -8 12 10 10 26 -4 12 -11 12 -10 0 6 -20 26 -23 51 -4 35 11 -9 18
-8 32 2 13 10 12 8 -3 -10 -14 -17 -16 -23 -5 -19 8 3 20 -2 25 -9 9 -12 11
-11 11 6 0 11 -5 17 -10 14 -5 -3 -6 -1 -3 5 8 12 47 4 47 -10 0 -5 -4 -6 -10
-3 -5 3 -10 1 -10 -4 0 -6 4 -11 9 -11 10 0 32 24 28 31 -1 3 5 -3 14 -12 12
-13 18 -14 32 -4 9 6 13 16 9 21 -4 4 1 2 11 -5 13 -10 14 -16 6 -21 -8 -6 -8
-9 0 -14 10 -7 15 5 12 31 -1 6 3 14 9 18 6 4 10 3 9 -2 -3 -20 2 -34 11 -28
6 4 7 11 4 17 -8 13 11 3 41 -21 18 -15 19 -15 6 2 -8 10 -9 17 -3 17 6 0 18
-10 26 -22 9 -12 16 -18 16 -12 0 5 -5 15 -12 22 -9 9 -9 12 -1 12 7 0 19 -10
27 -22 9 -12 16 -18 16 -12 0 5 -5 15 -12 22 -9 9 -9 12 2 13 8 0 23 2 32 4
10 2 20 -1 23 -5 3 -5 19 -5 35 0 19 5 28 5 25 -1 -4 -5 -2 -9 4 -9 5 0 12 8
14 17 4 16 5 16 6 -1 1 -19 1 -19 23 0 12 10 18 13 13 5 -6 -11 -4 -13 9 -8
10 4 15 3 11 -3 -3 -6 -2 -10 4 -10 5 0 12 8 14 18 4 16 5 16 6 -1 0 -10 6
-15 11 -12 6 4 7 12 3 18 -5 8 -2 8 9 0 8 -7 18 -10 22 -6 4 4 4 -1 0 -12 -4
-11 -4 -17 1 -13 4 4 13 4 19 -1 15 -11 46 -22 46 -15 0 2 -11 9 -25 14 -14 5
-25 14 -25 19 0 6 7 8 15 5 8 -4 21 -1 28 5 10 8 14 7 14 -4 0 -8 -5 -11 -10
-8 -6 3 -7 2 -4 -4 10 -17 52 -8 51 11 -2 13 1 14 11 6 9 -8 15 -8 20 0 3 6
11 8 16 4 5 -3 7 -10 3 -15 -3 -5 -9 -7 -14 -4 -4 3 -14 -3 -21 -13 -13 -15
-12 -16 4 -3 9 7 17 10 17 6 0 -4 6 -3 13 2 6 5 33 9 58 8 37 0 46 3 42 15 -4
13 -4 13 6 0 8 -12 14 -13 29 -4 12 8 24 9 35 2 12 -6 17 -5 17 4 0 10 3 9 9
-1 7 -11 13 -12 23 -3 8 7 19 7 28 2 9 -5 17 -5 21 1 4 7 9 4 12 -6 5 -11 3
-14 -6 -9 -6 4 -8 3 -4 -1 4 -5 14 -10 23 -11 11 -2 12 1 5 10 -15 18 -1 28
17 13 17 -14 21 -13 34 5 6 8 7 5 2 -12 l-7 -25 20 24 c15 19 22 21 28 11 5
-9 4 -11 -3 -6 -17 10 -15 1 4 -14 8 -8 14 -9 13 -4 -4 21 2 35 11 29 6 -4 8
-11 4 -16 -3 -6 3 -5 15 3 l21 13 -23 12 c-12 7 -17 12 -11 13 7 0 14 8 17 19
3 12 -1 18 -11 17 -8 0 -17 6 -19 14 -4 13 -3 13 7 0 10 -13 11 -12 6 3 -3 10
-6 21 -6 24 0 3 -7 0 -15 -7 -13 -11 -14 -10 -9 5 5 13 4 16 -5 11 -8 -5 -10
0 -7 19 4 20 0 28 -20 37 -13 6 -24 15 -24 20 0 5 10 4 23 -2 20 -10 20 -10
-3 9 -13 10 -27 18 -30 16 -3 -2 -7 6 -7 18 -2 17 0 19 7 7 5 -8 10 -10 10 -4
0 19 -13 24 -29 12 -9 -7 -13 -8 -8 -3 4 4 -1 17 -10 28 -10 11 -12 17 -5 13
6 -4 12 -2 12 3 0 6 -4 11 -10 11 -5 0 -10 5 -10 11 0 5 5 7 10 4 16 -10 11 1
-7 16 -9 8 -14 9 -10 3 3 -6 1 -11 -6 -11 -7 0 -13 8 -13 18 0 10 4 16 7 13 4
-2 11 0 14 6 4 6 3 10 -2 9 -25 -4 -35 3 -30 21 6 22 -8 28 -17 8 -3 -7 -4 3
-1 22 4 29 3 31 -5 12 -12 -29 -19 -28 -15 3 1 14 -2 28 -8 32 -6 4 -7 1 -2
-7 5 -9 4 -11 -3 -6 -9 5 -9 13 -1 29 7 12 8 19 4 15 -4 -4 -14 0 -22 10 -8 9
-11 11 -7 3 5 -10 3 -12 -5 -7 -7 5 -10 10 -7 14 3 3 -2 11 -12 19 -9 8 -12
12 -5 8 8 -4 11 2 8 16 -6 30 -26 51 -42 45 -8 -3 -12 -2 -8 3 3 5 2 11 -2 14
-5 2 -3 3 3 1 6 -1 11 4 11 12 0 7 -3 11 -7 9 -9 -5 -40 32 -33 39 4 3 -1 6
-9 6 -8 0 -15 8 -15 17 0 35 -3 44 -13 38 -5 -3 -10 4 -10 15 0 15 -5 20 -14
17 -11 -4 -13 -1 -9 10 5 12 3 14 -8 8 -12 -8 -12 -6 0 9 13 15 13 19 1 26 -8
5 -19 6 -25 2 -5 -3 -3 3 5 14 8 10 10 16 6 12 -5 -4 -17 2 -27 14 -21 23 -24
32 -10 23 5 -3 13 0 17 6 4 8 3 9 -4 5 -11 -7 -17 6 -13 27 1 5 -3 6 -9 2 -6
-3 -8 -11 -5 -16 4 -5 1 -9 -5 -9 -7 0 -9 8 -5 21 5 16 4 19 -6 14 -9 -6 -11
-3 -6 9 5 13 3 17 -6 13 -8 -3 -14 1 -14 8 0 7 7 11 16 8 9 -3 6 2 -7 12 -13
10 -21 23 -18 32 3 8 1 11 -4 8 -6 -3 -10 -1 -10 5 0 6 -5 8 -10 5 -6 -4 -9
-3 -8 2 4 14 -32 74 -42 68 -4 -3 -7 7 -5 21 1 14 -3 28 -10 30 -7 3 -11 14
-8 24 3 12 -2 20 -16 25 -13 4 -18 11 -14 22 4 11 2 14 -5 9 -7 -4 -12 -2 -12
4 0 6 -4 9 -8 6 -5 -3 -9 1 -9 9 0 11 4 12 14 3 7 -6 16 -9 19 -6 2 3 -10 13
-28 21 -25 13 -28 17 -13 17 l20 1 -20 8 c-11 5 -24 6 -29 3 -5 -3 -6 0 -2 7
4 6 11 9 15 7 3 -3 7 4 7 14 0 15 -3 17 -15 7 -12 -10 -14 -9 -8 6 6 16 -3 22
-27 18 -5 -1 -3 6 5 15 8 10 10 15 4 12 -5 -3 -16 1 -24 9 -12 13 -11 14 10 9
l24 -7 -23 14 c-12 7 -20 16 -16 20 4 3 -1 9 -10 13 -9 3 -16 14 -16 23 0 14
-2 14 -10 1 -5 -8 -10 -10 -10 -5 0 6 6 17 13 24 10 11 10 13 0 7 -12 -6 -19
18 -14 47 0 4 -4 6 -11 5 -7 -2 -12 2 -13 9 0 7 -5 17 -12 24 -6 6 -9 19 -6
28 5 13 2 12 -16 -3 -16 -15 -20 -16 -16 -4 3 8 -1 23 -10 32 -9 9 -12 16 -6
16 6 0 11 5 11 11 0 5 -3 8 -7 6 -5 -2 -19 7 -33 21 l-25 25 25 -17 c13 -9 29
-16 35 -16 5 1 -3 8 -18 16 -15 8 -25 19 -22 24 4 6 2 10 -3 10 -6 0 -12 -7
-16 -15 -8 -21 -27 -19 -19 3 3 10 -2 6 -13 -8 -10 -14 -17 -29 -15 -35 12
-37 10 -45 -10 -34 -19 10 -20 9 -9 -11 10 -18 9 -21 -6 -18 -12 2 -18 -5 -21
-27 -2 -16 -9 -32 -15 -34 -6 -2 -5 -7 3 -13 10 -7 8 -8 -8 -5 -13 3 -23 1
-23 -4 0 -5 6 -9 13 -9 8 0 7 -3 -3 -9 -8 -6 -18 -7 -22 -5 -4 3 -5 -3 -1 -12
4 -10 2 -15 -4 -11 -5 3 -10 -1 -10 -10 0 -12 5 -11 19 7 10 13 21 21 23 18 3
-2 -9 -19 -26 -36 -17 -17 -28 -36 -24 -42 3 -5 0 -7 -8 -4 -8 3 -17 -3 -21
-13 -3 -10 -9 -25 -13 -33 -5 -13 -4 -13 13 0 18 14 18 14 1 -6 -9 -11 -14
-25 -10 -29 5 -5 1 -4 -9 3 -10 8 -19 9 -22 3 -4 -5 -2 -12 4 -16 15 -9 1 -27
-16 -21 -7 3 -16 0 -20 -6 -4 -6 -3 -8 3 -5 11 7 28 -22 18 -31 -3 -3 -5 1 -5
8 0 11 -3 11 -12 2 -10 -10 -10 -15 2 -23 12 -9 10 -10 -7 -6 -13 3 -26 0 -30
-5 -3 -6 -1 -8 4 -5 11 7 28 -22 18 -31 -3 -3 -5 0 -5 6 0 7 -8 12 -17 11 -11
0 -13 -3 -5 -6 6 -2 12 -9 12 -14 0 -6 -4 -7 -10 -4 -5 3 -10 1 -10 -5 0 -6
-5 -8 -12 -4 -7 4 -8 3 -4 -4 4 -6 14 -8 23 -5 15 6 16 5 3 -9 -8 -9 -18 -14
-21 -12 -4 2 -14 -7 -22 -20 -12 -18 -13 -26 -4 -36 8 -9 8 -11 1 -7 -16 9
-47 -41 -41 -65 4 -15 2 -17 -7 -8 -10 8 -13 4 -10 -16 1 -15 -3 -27 -12 -31
-9 -3 -13 -12 -10 -20 3 -8 2 -12 -3 -8 -17 10 -41 -25 -37 -53 5 -26 4 -26
-9 -8 -18 24 -20 13 -3 -17 11 -21 10 -21 -7 -7 -11 9 -16 10 -11 3 4 -8 2
-13 -6 -13 -10 0 -10 -2 1 -9 10 -7 11 -13 2 -30 -7 -11 -14 -21 -17 -21 -2 0
0 8 5 18 7 14 6 19 -2 19 -7 0 -14 -12 -15 -26 -1 -14 -8 -28 -15 -33 -9 -6
-9 -8 1 -8 7 0 10 -5 7 -11 -4 -6 -13 -8 -20 -5 -9 3 -12 -4 -11 -26 2 -28 1
-29 -12 -12 -13 18 -14 18 -8 -2 4 -13 1 -26 -9 -34 -8 -7 -13 -16 -10 -20 3
-4 -2 -10 -10 -14 -8 -3 -15 -10 -15 -16 0 -6 4 -9 9 -5 5 3 13 1 16 -5 4 -6
3 -10 -2 -9 -22 4 -44 -2 -39 -10 8 -13 -4 -42 -14 -36 -5 3 -11 1 -14 -4 -4
-5 -1 -13 5 -17 8 -5 9 -3 4 6 -5 9 -4 11 3 6 9 -5 7 -14 -5 -31 -10 -14 -22
-25 -27 -25 -5 0 -1 10 10 23 l19 22 -22 -19 c-19 -16 -21 -22 -10 -34 10 -13
9 -14 -2 -7 -11 6 -13 3 -9 -13 5 -16 2 -20 -14 -17 -17 4 -18 2 -6 -12 11
-15 11 -16 -5 -10 -15 6 -16 4 -7 -13 11 -21 -2 -36 -23 -24 -7 5 -6 0 3 -11
12 -15 12 -17 1 -10 -11 6 -13 4 -8 -8 3 -9 1 -19 -5 -23 -6 -4 -8 -3 -5 3 3
5 1 10 -6 10 -8 0 -12 -14 -11 -38 1 -33 -2 -37 -22 -34 -13 1 -22 -1 -19 -4
2 -4 0 -13 -6 -21 -6 -10 -9 -11 -9 -2 0 6 -5 12 -11 12 -5 0 -7 -4 -4 -10 4
-6 -6 -10 -22 -10 -23 0 -25 2 -13 11 12 9 12 10 -3 5 -10 -3 -21 -6 -23 -6
-3 0 -3 -4 0 -8 6 -10 -30 -9 -40 1 -4 3 -16 2 -27 -4 -12 -7 -17 -7 -13 -1 3
5 -5 13 -18 16 -16 4 -24 13 -23 25 0 11 5 17 9 15 5 -3 5 -10 2 -16 -4 -6 -2
-8 4 -5 5 4 8 17 5 30 -4 22 -4 22 12 2 17 -20 17 -20 10 4 -5 17 -4 21 5 16
9 -5 10 -1 5 15 -6 17 -4 21 6 14 10 -6 10 -3 -1 11 -9 11 -10 16 -2 11 11 -7
17 5 13 28 -1 5 5 3 14 -4 13 -11 15 -10 9 4 -4 11 -2 16 7 14 8 -2 13 8 14
28 2 39 12 54 33 54 15 0 15 2 2 10 -13 8 -13 10 2 10 12 0 15 6 11 23 -4 18
-3 19 6 7 9 -12 11 -10 11 13 0 16 4 26 10 22 6 -3 10 -1 10 4 0 6 -5 11 -12
11 -6 0 -4 6 7 13 10 8 15 19 11 25 -4 6 4 9 21 7 24 -2 25 -1 10 10 -15 11
-16 13 -2 19 8 3 15 0 15 -6 0 -6 3 -8 6 -5 4 4 1 14 -7 24 -9 11 -10 14 -1 9
7 -4 12 -1 12 9 0 9 4 14 8 11 5 -3 9 1 9 9 0 8 -5 15 -10 15 -5 0 -4 7 3 15
8 10 17 12 29 5 13 -6 18 -5 18 5 0 8 -4 12 -9 9 -4 -3 -6 5 -4 18 2 13 9 22
16 20 7 -2 10 3 7 12 -4 10 -1 13 7 10 8 -3 17 0 22 7 4 7 3 10 -3 6 -20 -13
-22 21 -2 39 11 10 17 24 14 31 -2 8 -1 11 5 8 5 -3 14 4 20 15 6 12 18 19 25
16 9 -3 12 0 8 9 -3 8 -10 12 -17 8 -6 -3 -1 4 12 16 12 12 19 27 16 33 -5 7
-2 8 6 3 10 -6 12 -4 7 9 -5 13 -1 19 13 23 17 5 18 8 8 21 -11 13 -10 14 11
7 15 -5 21 -4 17 3 -4 6 2 15 11 21 10 6 13 11 8 11 -6 0 -11 9 -12 21 -1 14
3 19 12 16 19 -8 27 4 14 19 -8 10 -6 12 10 9 12 -2 19 0 16 5 -3 5 -1 11 4
14 5 3 7 14 4 24 -2 10 7 29 21 45 24 26 31 46 27 71 -1 5 5 3 14 -4 9 -7 15
-9 14 -4 -4 21 2 35 12 28 8 -4 9 1 4 16 -6 19 -4 22 11 16 16 -6 16 -5 -2 15
-10 12 -13 19 -6 15 6 -4 12 -2 12 3 0 6 5 11 11 11 5 0 7 -6 3 -12 -4 -7 -3
-10 1 -5 5 4 10 17 12 28 3 20 11 32 46 71 19 20 19 20 -3 13 -20 -6 -21 -5
-9 8 8 8 17 13 22 10 4 -2 7 0 7 6 0 5 -5 13 -10 16 -15 9 7 35 24 29 7 -3 21
5 32 17 10 13 14 19 7 16 -6 -4 -14 -3 -18 3 -3 5 2 10 12 10 12 0 14 3 6 8
-14 9 -6 22 22 38 11 7 19 19 17 29 -2 9 1 15 6 11 5 -3 9 1 9 9 0 8 -5 12
-11 9 -6 -3 -1 3 12 13 13 10 24 28 25 40 0 12 4 20 8 17 4 -2 14 7 23 21 22
33 20 43 -2 15 -14 -18 -19 -19 -19 -7 0 9 4 14 8 12 4 -3 10 2 13 11 4 10 12
14 22 10 15 -6 15 -4 3 11 -12 15 -12 16 2 11 9 -4 16 -1 16 7 0 8 -7 11 -16
8 -13 -5 -14 -3 -3 8 15 16 16 29 1 29 -5 0 -7 -5 -3 -12 4 -7 3 -8 -5 -4 -9
6 -9 11 -1 21 8 9 5 12 -11 11 -12 0 -24 6 -26 14 -4 13 -3 13 6 0 9 -13 11
-13 11 3 0 9 -4 17 -10 17 -5 0 -10 7 -10 16 0 9 -5 12 -12 8 -10 -6 -10 -5 0
8 10 12 9 18 -3 28 -8 7 -12 16 -9 21 3 5 -3 9 -12 9 -16 0 -16 -1 1 -20 10
-11 14 -20 9 -20 -15 0 -35 38 -24 45 6 4 4 13 -5 22 -9 9 -14 23 -11 32 4 11
1 10 -10 -4 -16 -20 -16 -20 -11 2 3 13 -1 24 -9 27 -8 3 -11 0 -8 -8z m46
-461 c0 -5 -5 -10 -11 -11 -8 -2 -7 -1 0 3 8 4 7 8 -2 15 -11 8 -11 9 -1 6 8
-2 14 -8 14 -13z m193 -25 c3 -5 -1 -10 -10 -10 -9 0 -13 5 -10 10 3 6 8 10
10 10 2 0 7 -4 10 -10z m-235 -64 c0 -3 -4 -8 -10 -11 -5 -3 -10 -1 -10 4 0 6
5 11 10 11 6 0 10 -2 10 -4z m185 -25 c3 -5 2 -12 -3 -15 -5 -3 -9 1 -9 9 0
17 3 19 12 6z m180 -31 c3 -5 2 -10 -4 -10 -5 0 -13 5 -16 10 -3 6 -2 10 4 10
5 0 13 -4 16 -10z m20 -40 c3 -5 2 -10 -4 -10 -5 0 -13 5 -16 10 -3 6 -2 10 4
10 5 0 13 -4 16 -10z m-474 -33 c-10 -9 -11 -8 -5 6 3 10 9 15 12 12 3 -3 0
-11 -7 -18z m-151 -281 c0 -3 -4 -8 -10 -11 -5 -3 -10 -1 -10 4 0 6 5 11 10
11 6 0 10 -2 10 -4z m825 -37 c-4 -5 -12 -9 -18 -8 -9 0 -8 2 1 6 6 2 9 10 6
15 -4 7 -2 8 5 4 6 -4 9 -12 6 -17z m-646 -42 c-2 -1 -13 -9 -24 -17 -19 -14
-19 -14 -6 3 7 9 18 17 24 17 6 0 8 -1 6 -3z m-239 -21 c0 -3 -4 -8 -10 -11
-5 -3 -10 -1 -10 4 0 6 5 11 10 11 6 0 10 -2 10 -4z m708 -161 c6 -14 10 -25
8 -25 -2 0 -11 11 -20 25 -9 14 -13 25 -8 25 5 0 14 -11 20 -25z m-594 -46
c-3 -5 -10 -7 -15 -3 -5 3 -7 10 -3 15 3 5 10 7 15 3 5 -3 7 -10 3 -15z m303
3 c-10 -10 -14 -22 -10 -27 5 -4 2 -5 -4 -1 -10 5 -10 11 0 26 6 11 16 20 21
20 5 0 2 -8 -7 -18z m329 -13 c0 -14 -4 -15 -18 -8 -20 11 -17 26 4 26 8 0 14
-8 14 -18z m-372 -70 c-8 -14 -21 -11 -21 5 0 8 6 12 14 9 7 -3 10 -9 7 -14z
m-67 -107 c-10 -10 -14 -22 -10 -26 4 -4 0 -4 -9 -1 -15 6 -15 8 0 25 9 10 21
19 26 19 5 1 2 -7 -7 -17z m-82 -153 c-4 -5 -12 -9 -18 -8 -9 0 -8 2 1 6 6 2
9 10 6 15 -4 7 -2 8 5 4 6 -4 9 -12 6 -17z m-618 -134 c0 -8 -4 -12 -9 -9 -5
3 -6 10 -3 15 9 13 12 11 12 -6z m1318 -185 c3 -5 1 -10 -4 -10 -6 0 -11 5
-11 10 0 6 2 10 4 10 3 0 8 -4 11 -10z m96 -3 c-1 -12 -15 -9 -19 4 -3 6 1 10
8 8 6 -3 11 -8 11 -12z m-790 -110 c-10 -9 -11 -8 -5 6 3 10 9 15 12 12 3 -3
0 -11 -7 -18z m-37 -91 c-3 -9 -10 -16 -15 -16 -6 0 -5 9 1 21 13 24 24 20 14
-5z m323 -61 c0 -8 -4 -15 -9 -15 -10 0 -11 14 -1 23 9 10 10 9 10 -8z m638 5
c3 -5 1 -10 -4 -10 -6 0 -11 5 -11 10 0 6 2 10 4 10 3 0 8 -4 11 -10z m39 2
c3 -5 -1 -9 -9 -9 -8 0 -12 4 -9 9 3 4 7 8 9 8 2 0 6 -4 9 -8z m-1906 -23 c9
-12 9 -16 -1 -16 -7 0 -14 9 -14 20 -1 11 -1 18 0 16 2 -2 8 -11 15 -20z m483
7 c5 3 9 0 9 -5 0 -12 -35 -9 -47 4 -5 4 -2 5 5 1 7 -4 12 -2 13 6 0 10 2 10
6 0 2 -6 9 -10 14 -6z"/>
<path d="M1096 2104 c-5 -14 -4 -15 9 -4 17 14 19 20 6 20 -5 0 -12 -7 -15
-16z"/>
<path d="M1073 2055 c-9 -24 1 -27 15 -5 8 13 8 20 2 20 -6 0 -13 -7 -17 -15z"/>
<path d="M1030 1979 c0 -5 5 -7 10 -4 6 3 10 8 10 11 0 2 -4 4 -10 4 -5 0 -10
-5 -10 -11z"/>
<path d="M1247 1804 c-3 -5 1 -15 9 -22 16 -14 18 -5 5 17 -5 7 -11 9 -14 5z"/>
<path d="M1917 1329 c7 -7 15 -10 18 -7 3 3 -2 9 -12 12 -14 6 -15 5 -6 -5z"/>
<path d="M883 1138 c-17 -23 -25 -44 -9 -24 9 11 22 23 28 28 9 5 9 8 2 8 -6
0 -16 -6 -21 -12z"/>
<path d="M836 1081 c-4 -5 1 -8 9 -7 21 3 31 16 12 16 -9 0 -18 -4 -21 -9z"/>
<path d="M985 1000 c-3 -5 -1 -10 4 -10 6 0 11 5 11 10 0 6 -2 10 -4 10 -3 0
-8 -4 -11 -10z"/>
<path d="M1773 991 c0 -11 5 -18 9 -15 4 3 5 11 1 19 -7 21 -12 19 -10 -4z"/>
<path d="M770 965 c0 -5 5 -17 10 -25 5 -8 10 -10 10 -5 0 6 -5 17 -10 25 -5
8 -10 11 -10 5z"/>
<path d="M1843 865 c0 -8 4 -12 9 -9 5 3 6 10 3 15 -9 13 -12 11 -12 -6z"/>
<path d="M382 865 c4 -4 -2 -16 -14 -26 -11 -11 -17 -19 -11 -19 5 0 18 9 27
19 14 15 15 21 4 27 -7 4 -10 4 -6 -1z"/>
<path d="M702 830 c-9 -15 -9 -21 1 -26 6 -4 9 -4 5 1 -4 4 -3 14 4 22 6 7 9
15 7 18 -3 2 -10 -4 -17 -15z"/>
<path d="M233 605 c4 -5 0 -16 -9 -26 -12 -14 -13 -18 -2 -25 7 -4 10 -3 5 1
-4 5 0 16 9 26 12 14 13 18 2 25 -7 4 -10 3 -5 -1z"/>
<path d="M716 498 c3 -5 10 -6 15 -3 13 9 11 12 -6 12 -8 0 -12 -4 -9 -9z"/>
<path d="M1775 479 c-4 -6 -5 -12 -2 -15 2 -3 7 2 10 11 7 17 1 20 -8 4z"/>
<path d="M2415 480 c-3 -5 -1 -10 4 -10 6 0 11 5 11 10 0 6 -2 10 -4 10 -3 0
-8 -4 -11 -10z"/>
<path d="M1279 463 c-13 -17 -13 -17 6 -3 11 8 22 16 24 17 2 2 0 3 -6 3 -6 0
-17 -8 -24 -17z"/>
<path d="M76 341 c-4 -5 -2 -12 3 -15 5 -4 12 -2 15 3 4 5 2 12 -3 15 -5 4
-12 2 -15 -3z"/>
<path d="M926 274 c-9 -24 -2 -26 12 -4 7 11 8 20 3 20 -5 0 -12 -7 -15 -16z"/>
<path d="M890 199 c0 -5 -4 -8 -9 -4 -13 7 -22 -8 -13 -22 4 -7 14 -2 25 13
10 13 13 24 7 24 -5 0 -10 -5 -10 -11z"/>
<path d="M2254 188 c-4 -7 -4 -10 1 -6 4 4 15 2 24 -5 14 -11 14 -10 2 6 -16
20 -18 21 -27 5z"/>
<path d="M2335 190 c-4 -6 -3 -9 2 -8 4 2 8 -1 8 -7 0 -5 -4 -9 -8 -7 -5 1 -6
-2 -2 -8 5 -8 11 -7 21 1 11 9 11 15 3 25 -14 17 -16 17 -24 4z"/>
<path d="M1710 178 c0 -4 4 -8 9 -8 6 0 12 4 15 8 3 5 -1 9 -9 9 -8 0 -15 -4
-15 -9z"/>
<path d="M1850 180 c0 -5 5 -10 11 -10 5 0 7 5 4 10 -3 6 -8 10 -11 10 -2 0
-4 -4 -4 -10z"/>
<path d="M2435 180 c-3 -5 -1 -10 4 -10 6 0 11 5 11 10 0 6 -2 10 -4 10 -3 0
-8 -4 -11 -10z"/>
<path d="M67 173 c-12 -12 -7 -19 12 -19 15 0 17 3 9 13 -12 15 -13 15 -21 6z"/>
<path d="M376 166 c6 -15 74 -18 74 -3 0 8 3 8 8 2 9 -12 52 -16 52 -4 0 14
-50 19 -67 6 -8 -6 -13 -6 -13 0 0 5 -13 9 -29 9 -16 0 -27 -4 -25 -10z"/>
<path d="M555 170 c-3 -6 -10 -8 -15 -5 -5 3 -11 2 -13 -2 -3 -5 33 -8 79 -8
46 -1 84 3 84 8 0 4 -4 6 -9 2 -5 -3 -12 -1 -15 4 -6 9 -63 7 -73 -3 -3 -3
-12 -1 -19 5 -8 7 -14 7 -19 -1z"/>
<path d="M1235 169 c-4 -5 -4 -13 -1 -16 3 -4 6 0 6 8 0 11 2 11 10 -1 6 -9
10 -10 10 -3 0 17 -17 25 -25 12z"/>
<path d="M1586 162 c-2 -4 4 -8 14 -8 10 0 16 4 14 8 -3 4 -9 8 -14 8 -5 0
-11 -4 -14 -8z"/>
<path d="M1740 166 c0 -2 7 -7 16 -10 8 -3 12 -2 9 4 -6 10 -25 14 -25 6z"/>
<path d="M2156 158 c3 -5 10 -6 15 -3 13 9 11 12 -6 12 -8 0 -12 -4 -9 -9z"/>
<path d="M2255 160 c3 -5 8 -10 11 -10 2 0 4 5 4 10 0 6 -5 10 -11 10 -5 0 -7
-4 -4 -10z"/>
</g>
</svg>
