<?xml version="1.0" standalone="no"?>
<!DOCTYPE svg PUBLIC "-//W3C//DTD SVG 20010904//EN"
 "http://www.w3.org/TR/2001/REC-SVG-20010904/DTD/svg10.dtd">
<svg version="1.0" xmlns="http://www.w3.org/2000/svg"
 width="290.000000pt" height="290.000000pt" viewBox="0 0 290.000000 290.000000"
 preserveAspectRatio="xMidYMid meet">
<metadata>
Created by potrace 1.11, written by Peter Selinger 2001-2013
</metadata>
<g transform="translate(0.000000,290.000000) scale(0.100000,-0.100000)"
fill="#000000" stroke="none">
<path d="M1139 2536 c-2 -2 -42 -6 -89 -9 -47 -4 -118 -11 -158 -18 l-72 -12
0 -1043 c0 -573 4 -1045 8 -1048 21 -12 184 -21 402 -21 257 0 376 14 517 62
208 70 343 212 394 414 72 283 -73 556 -346 654 -27 10 -54 22 -58 26 -5 3 17
18 48 33 164 75 278 231 291 399 22 280 -151 478 -476 544 -65 14 -450 29
-461 19z m366 -220 c131 -29 227 -95 269 -185 17 -37 21 -65 21 -146 0 -92 -2
-104 -29 -153 -53 -94 -145 -158 -268 -187 -65 -14 -117 -17 -298 -16 l-105 1
0 339 0 340 45 9 c50 9 317 8 365 -2z m2 -916 c246 -51 377 -206 360 -426 -17
-208 -149 -330 -397 -368 -81 -12 -308 -14 -354 -2 l-21 5 0 406 0 406 165 -2
c108 -1 193 -8 247 -19z"/>
</g>
</svg>
